<svg width="28" height="28" viewBox="0 0 28 28" fill="none" xmlns="http://www.w3.org/2000/svg">
    <path d="M0.5 14C0.5 6.54416 6.54416 0.5 14 0.5C21.4558 0.5 27.5 6.54416 27.5 14C27.5 21.4558 21.4558 27.5 14 27.5C6.54416 27.5 0.5 21.4558 0.5 14Z" stroke="#2F2B36"/>
    <path d="M15.197 18.5309L19.3543 14.3521C19.4413 14.2646 19.4902 14.1463 19.4902 14.0229C19.4902 13.8995 19.4413 13.7812 19.3543 13.6937L15.197 9.51491C15.1566 9.46166 15.1052 9.41775 15.0463 9.38616C14.9874 9.35457 14.9223 9.33605 14.8556 9.33186C14.7551 9.32553 14.6551 9.35188 14.5708 9.40697C14.4864 9.46207 14.4221 9.54296 14.3875 9.63758C14.3528 9.73225 14.3498 9.8356 14.3788 9.93215C14.4078 10.0287 14.4674 10.1132 14.5485 10.1731L17.9038 13.5562H8.97649C8.85271 13.5562 8.73399 13.6054 8.64647 13.6929C8.55894 13.7804 8.50977 13.8991 8.50977 14.0229C8.50977 14.1467 8.55894 14.2654 8.64647 14.3529C8.73399 14.4405 8.85271 14.4896 8.97649 14.4896H17.9038L14.5485 17.8729C14.5052 17.9164 14.471 17.968 14.4477 18.0247C14.4243 18.0814 14.4125 18.1422 14.4127 18.2035C14.4129 18.2648 14.4252 18.3255 14.4489 18.3821C14.4726 18.4387 14.5072 18.49 14.5508 18.5332C14.5942 18.5765 14.6458 18.6108 14.7025 18.6341C14.7593 18.6574 14.82 18.6693 14.8814 18.6691C14.9427 18.6689 15.0034 18.6566 15.06 18.6328C15.1165 18.6091 15.1679 18.5745 15.211 18.5309H15.197Z" fill="#2F2B36"/>
</svg>